<?xml version="1.0"?>
<svg xmlns="http://www.w3.org/2000/svg" xmlns:xlink="http://www.w3.org/1999/xlink" version="1.1" id="Capa_1" x="0px" y="0px" viewBox="0 0 493.192 493.192" style="enable-background:new 0 0 493.192 493.192;" xml:space="preserve" width="512px" height="512px" class=""><g><path style="fill:#4DCFE0;" d="M470.204,461.845H439.38c-0.522-34.482-28.735-62.171-63.216-62.171  c-25.6,0-48.065,15.151-57.992,38.139c-15.673,2.612-29.78,11.494-39.706,24.033h-49.11c-8.882-13.584-24.033-22.465-40.229-22.988  c-7.837-20.898-28.212-35.527-51.2-35.527c-16.196,0-31.347,7.314-41.796,18.808c-2.612-0.522-5.747-0.522-8.359-0.522  c-25.6,0-47.543,16.718-54.857,40.229h-9.927c-8.882,0-15.673,6.792-15.673,15.673c0,8.882,6.792,15.673,15.673,15.673h447.216  c8.882,0,15.673-6.792,15.673-15.673C485.878,468.637,479.086,461.845,470.204,461.845z M344.816,455.576  c3.135-14.106,16.196-24.555,31.347-24.555c17.763,0,31.347,13.584,31.869,30.824h-65.829  C343.249,460.278,344.294,458.188,344.816,455.576z M87.249,452.963c3.135,0,6.269,0.522,8.882,1.567  c7.837,3.657,16.718,0,20.376-7.314c3.657-7.837,12.016-12.539,20.898-12.539c12.539,0,22.988,9.927,23.51,21.943  c0,1.567,0.522,3.135,1.045,5.224H67.918C72.62,456.62,79.412,452.963,87.249,452.963z" data-original="#4DCFE0" class=""/><g>
	<path style="fill:#FFFFFF" d="M246.596,207.412c26.122,0,47.02-20.898,47.02-47.02s-20.898-47.02-47.02-47.02   s-47.02,20.898-47.02,47.02S220.473,207.412,246.596,207.412z M246.596,144.718c8.882,0,15.673,6.792,15.673,15.673   s-6.792,15.673-15.673,15.673s-15.673-6.792-15.673-15.673S237.714,144.718,246.596,144.718z" data-original="#1185E0" class="active-path" data-old_color="#1185E0"/>
	<path style="fill:#FFFFFF" d="M367.282,195.396c-7.314-6.269-17.763-14.629-30.302-19.853   c-2.612-63.216-29.257-121.208-78.89-170.841C254.955,1.567,251.298,0,247.118,0l0,0c-4.18,0-8.359,1.567-10.971,4.702   c-49.11,49.633-76.278,107.624-78.89,170.841c-13.061,4.702-23.51,13.584-31.347,19.853   c-16.718,15.151-26.122,35.527-27.167,57.992c-1.045,22.465,6.792,43.886,21.943,60.082c3.135,3.135,7.314,5.224,11.494,5.224   c3.657,0,7.314-1.567,10.449-4.18l32.392-29.78c6.792,17.763,15.673,34.482,26.645,50.678   c9.404,13.584,30.824,18.286,48.065,18.286c0,0,0,0,0.522,0c10.971,0,30.825-2.09,40.229-15.673   c11.494-17.241,20.898-35.004,28.212-53.29l32.392,29.78c3.135,2.612,6.792,4.18,10.449,4.18c4.18,0,8.359-1.567,11.494-5.225   c15.151-16.196,22.988-38.139,21.943-60.082C393.404,230.922,384,210.024,367.282,195.396z M246.596,38.661   c5.224,5.747,9.927,11.494,14.629,17.763c-9.404,2.612-19.331,2.612-28.735,0C236.669,50.155,241.371,44.408,246.596,38.661z    M214.727,83.592c9.927,4.18,20.898,6.269,31.869,6.269s21.943-2.09,32.392-6.269c25.078,44.931,32.914,95.608,22.465,148.375   c-0.522,3.135-1.567,6.269-2.09,9.927c-32.392,19.331-73.143,19.331-105.535-0.522c-0.522-2.612-1.045-5.747-1.567-8.359   C181.812,179.722,189.649,129.045,214.727,83.592z M134.269,279.51c-3.657-7.837-5.224-16.196-4.702-24.555   c0.522-14.106,6.792-26.645,16.718-36.049c3.657-3.657,7.314-6.269,10.971-8.359c1.045,9.404,2.09,18.808,4.18,28.735   c1.045,4.702,2.09,9.404,3.135,13.584L134.269,279.51z M226.743,318.171c-7.837-12.016-14.629-24.033-19.853-36.571   c13.061,4.18,26.645,6.269,39.706,6.269s26.122-2.09,38.661-5.747c-5.747,13.584-13.061,26.122-21.42,38.661   C257.567,324.441,232.49,322.873,226.743,318.171z M358.4,279.51l-29.78-27.167c1.045-4.702,2.09-9.927,3.135-14.629   c1.567-9.404,3.135-18.286,3.657-27.167c3.135,2.09,6.792,5.224,10.449,8.359c10.449,9.404,16.196,21.943,16.718,36.049   C363.624,263.314,362.057,271.673,358.4,279.51z" data-original="#1185E0" class="active-path" data-old_color="#1185E0"/>
	<path style="fill:#FFFFFF" d="M246.596,367.282c-8.882,0-15.673,6.792-15.673,15.673v35.004c0,8.882,6.792,15.673,15.673,15.673   s15.673-6.792,15.673-15.673v-35.004C262.269,374.073,255.478,367.282,246.596,367.282z" data-original="#1185E0" class="active-path" data-old_color="#1185E0"/>
	<path style="fill:#FFFFFF" d="M289.437,357.355c-8.882,0-15.673,6.792-15.673,15.673v30.302c0,8.882,6.792,15.673,15.673,15.673   c8.882,0,15.673-6.792,15.673-15.673v-30.302C305.11,364.147,298.318,357.355,289.437,357.355z" data-original="#1185E0" class="active-path" data-old_color="#1185E0"/>
	<path style="fill:#FFFFFF" d="M203.755,357.355c-8.882,0-15.673,6.792-15.673,15.673v25.078c0,8.882,6.792,15.673,15.673,15.673   s15.673-6.792,15.673-15.673v-25.078C219.429,364.147,212.637,357.355,203.755,357.355z" data-original="#1185E0" class="active-path" data-old_color="#1185E0"/>
</g></g> </svg>
